# xmcd
#
# Track frame offsets: 
#        150
#        16863
#        37471
#        59854
#        87402
#        103617
#        120295
#        131317
#        148481
#        161649
#        176013
#        198465
#
# Disc length: 2823 seconds
#
# Revision: 0
# Processed by: cddbd v1.5.1PL0 Copyright (c) Steve Scherf et al.
# Submitted via: ExactAudioCopy v0.95a5
#
DISCID=b10b050c
DTITLE=Blue Moonshine - New Mountain Music
DYEAR=2005
DGENRE=Bluegrass
TTITLE0=Front Porch Swing
TTITLE1=Never Needed
TTITLE2=Sinking Down
TTITLE3=Darmagi -- Mars Hall
TTITLE4=Music in Our Souls
TTITLE5=Hate to Wake You Baby
TTITLE6=Boat for Two
TTITLE7=Big Sister Waltz
TTITLE8=In Jail Again
TTITLE9=Tireless Devotion
TTITLE10=The Only Thing (Her Smile)
TTITLE11=Blackout Jack
EXTD=
EXTT0=
EXTT1=
EXTT2=
EXTT3=
EXTT4=
EXTT5=
EXTT6=
EXTT7=
EXTT8=
EXTT9=
EXTT10=
EXTT11=
PLAYORDER=
